<?xml version="1.0" encoding="UTF-8" standalone="no"?>
<!-- Created with Inkscape (http://www.inkscape.org/) -->

<svg
   xmlns:dc="http://purl.org/dc/elements/1.1/"
   xmlns:cc="http://creativecommons.org/ns#"
   xmlns:rdf="http://www.w3.org/1999/02/22-rdf-syntax-ns#"
   xmlns:svg="http://www.w3.org/2000/svg"
   xmlns="http://www.w3.org/2000/svg"
   xmlns:sodipodi="http://sodipodi.sourceforge.net/DTD/sodipodi-0.dtd"
   xmlns:inkscape="http://www.inkscape.org/namespaces/inkscape"
   width="97"
   height="89"
   viewBox="0 0 96.99998 88.999956"
   id="svg4233"
   version="1.1"
   inkscape:version="0.91 r13725"
   sodipodi:docname="small-joy.svg">
  <defs
     id="defs4235" />
  <sodipodi:namedview
     id="base"
     pagecolor="#ffffff"
     bordercolor="#666666"
     borderopacity="1.0"
     inkscape:pageopacity="0.0"
     inkscape:pageshadow="2"
     inkscape:zoom="5.6"
     inkscape:cx="49.742372"
     inkscape:cy="46.921241"
     inkscape:document-units="px"
     inkscape:current-layer="layer1"
     showgrid="false"
     inkscape:window-width="1280"
     inkscape:window-height="696"
     inkscape:window-x="0"
     inkscape:window-y="24"
     inkscape:window-maximized="1"
     units="px"
     showguides="false" />
  <metadata
     id="metadata4238">
    <rdf:RDF>
      <cc:Work
         rdf:about="">
        <dc:format>image/svg+xml</dc:format>
        <dc:type
           rdf:resource="http://purl.org/dc/dcmitype/StillImage" />
        <dc:title />
      </cc:Work>
    </rdf:RDF>
  </metadata>
  <g
     inkscape:label="Layer 1"
     inkscape:groupmode="layer"
     id="layer1"
     transform="translate(0,-963.36251)">
    <path
       style="display:inline;fill:#8c6b32;fill-opacity:1;fill-rule:evenodd;stroke:#000000;stroke-width:0.99999976;stroke-linecap:butt;stroke-linejoin:miter;stroke-opacity:1;stroke-miterlimit:4;stroke-dasharray:none"
       d="m 48.038394,967.51187 -6.851562,4.47987 -0.263523,11.33144 -12.121997,2.37169 -2.635218,5.53395 3.952828,3.42579 8.16917,-1.84466 -5.270432,6.85155 2.371694,4.4799 -5.006912,2.8987 -1.58113,5.2705 5.270435,8.9597 3.952824,0 0.263521,1.3176 -33.9942945,7.1151 -2.3716943,5.2704 10.2773448,3.9529 22.399343,-9.4868 1.58113,4.2163 -6.324522,1.0541 -3.425781,5.2705 10.013823,10.8043 9.750303,-2.6352 4.479868,-8.9597 2.371694,-0.5271 3.425784,11.595 14.493691,-1.3176 4.216347,-3.9528 -2.371694,-5.2705 3.952825,-7.1151 -6.060999,-7.6421 -4.216347,2.8987 -0.790564,-3.4257 3.162258,-2.1082 14.23017,3.4258 11.331433,-0.5271 0.79057,-5.2704 -8.959742,-3.9528 -15.811301,0.2635 -1.58113,-1.5811 6.588041,-10.2774 0,-2.8987 -3.162257,-2.8988 -6.851565,2.3717 -1.844651,-2.8987 2.108174,-3.16227 8.959736,-1.05409 1.317607,-5.79748 -5.797475,0.79057 -1.58113,-4.21635 6.851561,-3.16226 1.054087,-4.74339 -2.371694,-1.58113 -3.689304,0.26352 1.58113,-2.63521 -4.743391,-7.64213 -7.905649,10.01382 2.371694,5.53396 -4.216344,3.95282 -2.898741,-4.47987 -3.425781,-0.26352 z"
       id="path4145"
       inkscape:connector-curvature="0" />
    <path
       style="display:inline;fill:#83110b;fill-opacity:1;fill-rule:evenodd;stroke:#000000;stroke-width:0.99999976;stroke-linecap:butt;stroke-linejoin:miter;stroke-opacity:1;stroke-miterlimit:4;stroke-dasharray:none"
       d="m 37.497528,1009.9389 -1.054087,6.3245 3.952824,0 3.162261,-3.1623 0.527044,-5.0069 z"
       id="path4147"
       inkscape:connector-curvature="0" />
    <path
       style="display:inline;fill:#83110b;fill-opacity:1;fill-rule:evenodd;stroke:#000000;stroke-width:0.99999976;stroke-linecap:butt;stroke-linejoin:miter;stroke-opacity:1;stroke-miterlimit:4;stroke-dasharray:none"
       d="m 45.6667,986.22191 4.479868,5.27043 -2.898737,5.27044 -4.479868,0.26352 -1.317611,2.3717 -3.952824,1.8446 1.58113,3.4258 8.959736,-3.9528 4.479868,4.7434 5.006915,-4.7434 -3.162261,-1.0541 0.26352,-6.06098 6.851565,-1.05409 -1.31761,-4.21634 -3.689301,0.52704 -7.378609,-3.95283 z"
       id="path4149"
       inkscape:connector-curvature="0" />
    <path
       style="display:inline;fill:#83110b;fill-opacity:1;fill-rule:evenodd;stroke:#000000;stroke-width:0.99999976;stroke-linecap:butt;stroke-linejoin:miter;stroke-opacity:1;stroke-miterlimit:4;stroke-dasharray:none"
       d="m 68.856607,1003.0873 -7.115086,2.1082 -2.108174,4.4798 2.371698,2.8988 5.006911,-2.3717 z"
       id="path4151"
       inkscape:connector-curvature="0" />
    <path
       style="display:inline;fill:#83110b;fill-opacity:1;fill-rule:evenodd;stroke:#000000;stroke-width:0.99999976;stroke-linecap:butt;stroke-linejoin:miter;stroke-opacity:1;stroke-miterlimit:4;stroke-dasharray:none"
       d="m 59.106307,1036.0275 2.898738,5.534 3.689304,-1.5811 1.581127,-6.0611 z"
       id="path4153"
       inkscape:connector-curvature="0" />
    <path
       style="display:inline;fill:#83110b;fill-opacity:1;fill-rule:evenodd;stroke:#000000;stroke-width:0.99999976;stroke-linecap:butt;stroke-linejoin:miter;stroke-opacity:1;stroke-miterlimit:4;stroke-dasharray:none"
       d="m 40.396265,1036.291 -6.324518,3.9529 4.216345,3.4257 5.270434,-3.4257 1.054087,-2.1082 z"
       id="path4155"
       inkscape:connector-curvature="0" />
    <path
       style="display:inline;fill:#83110b;fill-opacity:1;fill-rule:evenodd;stroke:#000000;stroke-width:0.99999976;stroke-linecap:butt;stroke-linejoin:miter;stroke-opacity:1;stroke-miterlimit:4;stroke-dasharray:none"
       d="m 45.6667,1025.2231 12.121997,-1.5811 1.31761,4.2163 -6.588045,1.8447 -1.581127,4.2163 -2.371697,-3.1622 -3.162261,-0.2635 z"
       id="path4157"
       inkscape:connector-curvature="0" />
    <path
       style="display:inline;fill:#83110b;fill-opacity:1;fill-rule:evenodd;stroke:#000000;stroke-width:0.99999976;stroke-linecap:butt;stroke-linejoin:miter;stroke-opacity:1;stroke-miterlimit:4;stroke-dasharray:none"
       d="m 53.045306,1009.6753 -3.425781,1.3177 0.263523,3.4257 -5.270435,2.1082 0.527044,3.4258 16.074821,-2.6352 z"
       id="path4159"
       inkscape:connector-curvature="0" />
  </g>
</svg>
